<svg width="32" height="32" viewBox="0 0 32 32" xmlns="http://www.w3.org/2000/svg" shape-rendering="crispEdges">
  <rect width="32" height="32" rx="7" fill="#181511"/>
  <rect x="0.5" y="0.5" width="31" height="31" rx="6.5" fill="none" stroke="#9bbf5e" stroke-opacity="0.35"/>
  <g fill="#9bbf5e">
    <!-- pixel "N" (5x5 grid, 4px cells, centred) -->
    <rect x="6" y="6" width="4" height="4"/><rect x="22" y="6" width="4" height="4"/>
    <rect x="6" y="10" width="4" height="4"/><rect x="10" y="10" width="4" height="4"/><rect x="22" y="10" width="4" height="4"/>
    <rect x="6" y="14" width="4" height="4"/><rect x="14" y="14" width="4" height="4"/><rect x="22" y="14" width="4" height="4"/>
    <rect x="6" y="18" width="4" height="4"/><rect x="18" y="18" width="4" height="4"/><rect x="22" y="18" width="4" height="4"/>
    <rect x="6" y="22" width="4" height="4"/><rect x="22" y="22" width="4" height="4"/>
  </g>
</svg>
